<svg width="146" height="52" viewBox="0 0 146 52" fill="none" xmlns="http://www.w3.org/2000/svg">
<rect width="23.4" height="52" rx="10.4" fill="white"/>
<rect x="27.04" y="19.24" width="23.4" height="32.76" rx="10.4" fill="white"/>
<rect x="29.1201" y="15.6" width="15.6" height="18.72" rx="5.08444" transform="rotate(-90 29.1201 15.6)" fill="white"/>
<path d="M80.175 35V28.3643C80.175 27.6776 79.9594 27.1186 79.5282 26.6874C79.097 26.2562 78.538 26.0406 77.8513 26.0406C77.4041 26.0406 77.0049 26.1364 76.6535 26.3281C76.3022 26.5197 76.0227 26.7912 75.8151 27.1426C75.6234 27.4939 75.5276 27.9012 75.5276 28.3643L74.3059 27.7415C74.3059 26.8312 74.4975 26.0406 74.8808 25.3699C75.2641 24.6831 75.7911 24.1481 76.4619 23.7648C77.1486 23.3816 77.9311 23.1899 78.8095 23.1899C79.6879 23.1899 80.4624 23.3816 81.1332 23.7648C81.8199 24.1481 82.3549 24.6752 82.7382 25.3459C83.1215 26.0167 83.3132 26.7912 83.3132 27.6696V35H80.175ZM72.3894 35V17.6801H75.5276V35H72.3894ZM91.3748 35.2396C90.161 35.2396 89.083 34.984 88.1408 34.473C87.1985 33.946 86.4479 33.2273 85.8889 32.317C85.3459 31.4067 85.0745 30.3686 85.0745 29.2028C85.0745 28.0529 85.338 27.0308 85.865 26.1364C86.408 25.2261 87.1426 24.5075 88.0689 23.9804C88.9952 23.4375 90.0253 23.166 91.1592 23.166C92.2771 23.166 93.2593 23.4215 94.1057 23.9325C94.9681 24.4276 95.6389 25.1143 96.118 25.9927C96.613 26.8551 96.8606 27.8373 96.8606 28.9392C96.8606 29.1469 96.8446 29.3625 96.8127 29.586C96.7967 29.7937 96.7568 30.0332 96.6929 30.3047L86.9669 30.3287V27.981L95.2316 27.9571L93.962 28.9392C93.93 28.2525 93.8023 27.6776 93.5787 27.2144C93.3711 26.7513 93.0596 26.4 92.6444 26.1604C92.2451 25.9049 91.7501 25.7771 91.1592 25.7771C90.5363 25.7771 89.9933 25.9208 89.5302 26.2083C89.067 26.4798 88.7077 26.8711 88.4522 27.3821C88.2126 27.8772 88.0929 28.4681 88.0929 29.1548C88.0929 29.8575 88.2206 30.4724 88.4761 30.9994C88.7476 31.5105 89.1309 31.9097 89.626 32.1972C90.1211 32.4687 90.696 32.6044 91.3508 32.6044C91.9417 32.6044 92.4767 32.5086 92.9558 32.317C93.4349 32.1094 93.8502 31.8059 94.2015 31.4067L96.0461 33.2512C95.4871 33.906 94.8004 34.4011 93.9859 34.7365C93.1874 35.0719 92.317 35.2396 91.3748 35.2396ZM103.64 35.2396C102.586 35.2396 101.636 34.976 100.79 34.449C99.9432 33.922 99.2805 33.2033 98.8014 32.293C98.3222 31.3827 98.0827 30.3606 98.0827 29.2267C98.0827 28.0768 98.3222 27.0468 98.8014 26.1364C99.2805 25.2261 99.9432 24.5075 100.79 23.9804C101.636 23.4534 102.586 23.1899 103.64 23.1899C104.471 23.1899 105.213 23.3576 105.868 23.693C106.523 24.0284 107.042 24.4995 107.425 25.1064C107.825 25.6973 108.04 26.368 108.072 27.1186V31.2869C108.04 32.0535 107.825 32.7322 107.425 33.3231C107.042 33.914 106.523 34.3851 105.868 34.7365C105.213 35.0719 104.471 35.2396 103.64 35.2396ZM104.215 32.3409C105.094 32.3409 105.804 32.0535 106.347 31.4785C106.89 30.8876 107.162 30.129 107.162 29.2028C107.162 28.5959 107.034 28.0609 106.779 27.5977C106.539 27.1186 106.196 26.7513 105.748 26.4958C105.317 26.2243 104.806 26.0885 104.215 26.0885C103.64 26.0885 103.129 26.2243 102.682 26.4958C102.251 26.7513 101.908 27.1186 101.652 27.5977C101.413 28.0609 101.293 28.5959 101.293 29.2028C101.293 29.8256 101.413 30.3766 101.652 30.8557C101.908 31.3188 102.251 31.6861 102.682 31.9576C103.129 32.2132 103.64 32.3409 104.215 32.3409ZM106.994 35V31.8858L107.497 29.059L106.994 26.2802V23.4295H110.108V35H106.994ZM112.885 35V17.6801H116.023V35H112.885ZM120.504 35V18.6144H123.642V35H120.504ZM117.797 26.1844V23.4295H126.349V26.1844H117.797ZM133.295 35.2396C132.113 35.2396 131.051 34.976 130.109 34.449C129.167 33.922 128.424 33.2033 127.881 32.293C127.338 31.3827 127.067 30.3606 127.067 29.2267C127.067 28.0768 127.338 27.0468 127.881 26.1364C128.424 25.2261 129.167 24.5075 130.109 23.9804C131.067 23.4375 132.129 23.166 133.295 23.166C134.206 23.166 135.044 23.3336 135.811 23.669C136.577 24.0044 137.24 24.4835 137.799 25.1064L135.787 27.1426C135.483 26.8072 135.116 26.5517 134.685 26.376C134.269 26.2003 133.806 26.1125 133.295 26.1125C132.72 26.1125 132.201 26.2482 131.738 26.5197C131.291 26.7753 130.932 27.1346 130.66 27.5977C130.405 28.0449 130.277 28.5799 130.277 29.2028C130.277 29.8096 130.405 30.3526 130.66 30.8317C130.932 31.2949 131.291 31.6622 131.738 31.9337C132.201 32.1892 132.72 32.317 133.295 32.317C133.822 32.317 134.293 32.2291 134.709 32.0535C135.14 31.8618 135.507 31.5903 135.811 31.239L137.847 33.2752C137.256 33.914 136.577 34.4011 135.811 34.7365C135.044 35.0719 134.206 35.2396 133.295 35.2396ZM141.78 35.2396C141.205 35.2396 140.734 35.0479 140.367 34.6646C139.999 34.2813 139.816 33.8102 139.816 33.2512C139.816 32.6923 139.999 32.2212 140.367 31.8379C140.734 31.4546 141.205 31.2629 141.78 31.2629C142.339 31.2629 142.802 31.4546 143.169 31.8379C143.537 32.2212 143.72 32.6923 143.72 33.2512C143.72 33.8102 143.537 34.2813 143.169 34.6646C142.802 35.0479 142.339 35.2396 141.78 35.2396Z" fill="white"/>
</svg>
