<svg width="78" height="74" viewBox="0 0 78 74" fill="none" xmlns="http://www.w3.org/2000/svg">
<ellipse cx="39" cy="36.7418" rx="31.0024" ry="29.2147" fill="white"/>
<ellipse cx="39" cy="36.7511" rx="39" ry="36.7511" fill="white" fill-opacity="0.8"/>
<path d="M45.7422 34.0476L39.2184 29.2638C38.7089 28.8907 38.1059 28.666 37.4765 28.6145C36.847 28.5631 36.2156 28.6869 35.6523 28.9724C35.0889 29.2578 34.6156 29.6937 34.2848 30.2316C33.954 30.7696 33.7786 31.3887 33.778 32.0202V41.5925C33.7771 42.2247 33.9515 42.8447 34.282 43.3836C34.6125 43.9225 35.0861 44.3591 35.65 44.6448C36.2139 44.9305 36.8461 45.0542 37.4761 45.0019C38.1061 44.9497 38.7093 44.7236 39.2184 44.3489L45.7422 39.5652C46.1751 39.2475 46.5271 38.8324 46.7697 38.3534C47.0123 37.8744 47.1387 37.345 47.1387 36.8081C47.1387 36.2712 47.0123 35.7418 46.7697 35.2628C46.5271 34.7838 46.1751 34.3686 45.7422 34.051V34.0476Z" fill="#C13D60"/>
</svg>
